<svg width="13" height="18" viewBox="0 0 13 18" fill="none" xmlns="http://www.w3.org/2000/svg">
<path d="M0.15625 0.867188H5.48828C7.91797 0.867188 9.67969 1.21484 10.7734 1.91016C11.875 2.59766 12.4258 3.69531 12.4258 5.20312C12.4258 6.22656 12.1836 7.06641 11.6992 7.72266C11.2227 8.37891 10.5859 8.77344 9.78906 8.90625V9.02344C10.875 9.26562 11.6562 9.71875 12.1328 10.3828C12.6172 11.0469 12.8594 11.9297 12.8594 13.0312C12.8594 14.5938 12.293 15.8125 11.1602 16.6875C10.0352 17.5625 8.50391 18 6.56641 18H0.15625V0.867188ZM3.78906 7.65234H5.89844C6.88281 7.65234 7.59375 7.5 8.03125 7.19531C8.47656 6.89062 8.69922 6.38672 8.69922 5.68359C8.69922 5.02734 8.45703 4.55859 7.97266 4.27734C7.49609 3.98828 6.73828 3.84375 5.69922 3.84375H3.78906V7.65234ZM3.78906 10.5352V15H6.15625C7.15625 15 7.89453 14.8086 8.37109 14.4258C8.84766 14.043 9.08594 13.457 9.08594 12.668C9.08594 11.2461 8.07031 10.5352 6.03906 10.5352H3.78906Z" fill="#999999"/>
</svg>
