<svg width="16" height="16" viewBox="0 0 16 16" fill="none" xmlns="http://www.w3.org/2000/svg">
<path fill-rule="evenodd" clip-rule="evenodd" d="M8 16C12.4183 16 16 12.4183 16 8C16 3.58172 12.4183 0 8 0C3.58172 0 0 3.58172 0 8C0 12.4183 3.58172 16 8 16ZM5.22215 3.84265C6.0444 3.29324 7.01109 3 8 3C9.32571 3.00123 10.5968 3.5284 11.5342 4.46582C12.4716 5.40324 12.9988 6.67429 13 8C13 8.9889 12.7068 9.9556 12.1573 10.7779C11.6079 11.6001 10.827 12.241 9.91342 12.6194C8.99979 12.9978 7.99445 13.0969 7.02455 12.9039C6.05464 12.711 5.16373 12.2348 4.46447 11.5355C3.76521 10.8363 3.289 9.94536 3.09608 8.97545C2.90315 8.00555 3.00217 7.00021 3.3806 6.08658C3.75904 5.17295 4.39991 4.39206 5.22215 3.84265ZM5.83945 11.2335C6.47898 11.6608 7.23085 11.8889 8 11.8889C9.03102 11.8877 10.0195 11.4775 10.7485 10.7485C11.4775 10.0195 11.8877 9.03102 11.8889 8C11.8889 7.23085 11.6608 6.47897 11.2335 5.83945C10.8062 5.19992 10.1988 4.70148 9.48821 4.40714C8.77761 4.11279 7.99569 4.03578 7.24132 4.18583C6.48695 4.33589 5.79401 4.70627 5.25014 5.25014C4.70627 5.79401 4.33589 6.48694 4.18584 7.24131C4.03578 7.99569 4.1128 8.77761 4.40714 9.48821C4.70148 10.1988 5.19993 10.8062 5.83945 11.2335ZM8.71781 10.2979C9.2001 10.1472 9.62276 9.84866 9.92593 9.44444C10.0143 9.32657 10.0523 9.1784 10.0315 9.03254C10.0106 8.88668 9.93269 8.75507 9.81482 8.66667C9.69694 8.57826 9.54878 8.5403 9.40292 8.56114C9.25705 8.58197 9.12544 8.6599 9.03704 8.77778C8.9168 8.93931 8.76033 9.07037 8.58022 9.16043C8.4001 9.25048 8.20137 9.29702 8 9.2963C7.6562 9.2963 7.32648 9.15972 7.08338 8.91662C6.84028 8.67352 6.70371 8.3438 6.70371 8C6.70371 7.6562 6.84028 7.32648 7.08338 7.08338C7.32648 6.84028 7.6562 6.7037 8 6.7037C8.20137 6.70298 8.4001 6.74951 8.58022 6.83957C8.76033 6.92963 8.9168 7.06069 9.03704 7.22222C9.12544 7.3401 9.25705 7.41802 9.40292 7.43886C9.54878 7.4597 9.69694 7.42174 9.81482 7.33333C9.93269 7.24493 10.0106 7.11332 10.0315 6.96746C10.0523 6.82159 10.0143 6.67343 9.92593 6.55555C9.62276 6.15134 9.2001 5.85275 8.71781 5.7021C8.23552 5.55144 7.71806 5.55635 7.23871 5.71613C6.75937 5.87591 6.34245 6.18247 6.04701 6.59236C5.75157 7.00226 5.59259 7.49473 5.59259 8C5.59259 8.50527 5.75157 8.99774 6.04701 9.40763C6.34245 9.81753 6.75937 10.1241 7.23871 10.2839C7.71806 10.4436 8.23552 10.4486 8.71781 10.2979Z" fill="#DA191C"/>
</svg>
