<svg width="16" height="16" viewBox="0 0 16 16" fill="none" xmlns="http://www.w3.org/2000/svg">
<path fill-rule="evenodd" clip-rule="evenodd" d="M16 8C16 12.4183 12.4183 16 8 16C3.58172 16 0 12.4183 0 8C0 3.58172 3.58172 0 8 0C12.4183 0 16 3.58172 16 8ZM8 3.5C5.51472 3.5 3.5 5.51472 3.5 8C3.5 10.4853 5.51472 12.5 8 12.5C10.4853 12.5 12.5 10.4853 12.5 8C12.5 5.51472 10.4853 3.5 8 3.5ZM2.5 8C2.5 4.96243 4.96243 2.5 8 2.5C11.0376 2.5 13.5 4.96243 13.5 8C13.5 11.0376 11.0376 13.5 8 13.5C4.96243 13.5 2.5 11.0376 2.5 8ZM8.5 5C8.5 4.72386 8.27614 4.5 8 4.5C7.72386 4.5 7.5 4.72386 7.5 5V8.086V8.08607C7.50005 8.43214 7.59042 8.78708 7.77931 9.07035L7.77935 9.07041L8.58397 10.2773C8.73715 10.5071 9.04759 10.5692 9.27735 10.416C9.50711 10.2628 9.5692 9.95241 9.41603 9.72265L8.61136 8.51565L8.61132 8.51559C8.55017 8.4239 8.50004 8.27027 8.5 8.086V8.08593V5Z" fill="#20127F"/>
</svg>
