<svg width="16" height="16" viewBox="0 0 16 16" fill="none" xmlns="http://www.w3.org/2000/svg">
<path fill-rule="evenodd" clip-rule="evenodd" d="M8 16C12.4183 16 16 12.4183 16 8C16 3.58172 12.4183 0 8 0C3.58172 0 0 3.58172 0 8C0 12.4183 3.58172 16 8 16ZM7.42943 10.7373L7.9802 10.1905C8.09718 10.0736 8.25606 10.0076 8.42146 10.0076C8.58698 10.0076 8.7457 10.0734 8.86271 10.1905C8.97971 10.3076 9.04542 10.4663 9.04542 10.6319C9.04542 10.7974 8.97971 10.9561 8.86271 11.0732L8.25063 11.6857C7.96863 11.9659 7.63025 12.1829 7.25796 12.3223C6.88568 12.4616 6.48801 12.5201 6.09139 12.4939C5.69478 12.4676 5.30828 12.3572 4.95759 12.17C4.6069 11.9828 4.30004 11.7231 4.05739 11.4081L4.05498 11.4049C3.64657 10.8512 3.45284 10.168 3.50974 9.48219C3.56659 8.79702 3.86975 8.1557 4.36302 7.67708L4.90867 7.12679C4.96651 7.06844 5.03532 7.02212 5.11115 6.99051C5.18698 6.9589 5.26832 6.94262 5.35048 6.94262C5.43263 6.94262 5.51397 6.9589 5.5898 6.99051C5.66539 7.02202 5.73401 7.06814 5.79173 7.12623C5.84978 7.18399 5.89586 7.25264 5.92734 7.32824C5.95892 7.40409 5.97518 7.48543 5.97518 7.56759C5.97518 7.64975 5.95892 7.73109 5.92734 7.80694C5.89586 7.88254 5.84923 7.95174 5.79117 8.0095L5.17941 8.62595C5.02719 8.7767 4.90825 8.95774 4.83028 9.15736C4.75232 9.35699 4.71707 9.57077 4.72681 9.78488C4.73655 9.999 4.79107 10.2087 4.88684 10.4004C4.98216 10.5912 5.11622 10.76 5.28043 10.8959C5.5946 11.1376 5.98652 11.2554 6.38181 11.2271C6.77812 11.1986 7.15013 11.0252 7.42688 10.7399L7.42943 10.7373ZM12.171 4.96317C11.9844 4.6127 11.7255 4.30589 11.4114 4.06308L11.4083 4.06072C10.8513 3.64792 10.1631 3.45213 9.47229 3.50994C8.78182 3.56773 8.13598 3.87493 7.65529 4.37418L7.20096 4.8372C7.13222 4.89001 7.07449 4.95586 7.0311 5.03104C6.98483 5.11121 6.9559 5.20021 6.94619 5.29226C6.93648 5.38431 6.94619 5.47739 6.9747 5.56545C7.00321 5.65351 7.04972 5.73477 7.11155 5.80366L7.11823 5.81039C7.17606 5.86874 7.24488 5.91506 7.32071 5.94667C7.39654 5.97828 7.47788 5.99456 7.56003 5.99456C7.64219 5.99456 7.72352 5.97828 7.79935 5.94667C7.87517 5.91507 7.94401 5.86872 8.00184 5.81039L8.56174 5.24586L8.56388 5.24364C8.83886 4.95729 9.21012 4.78308 9.60592 4.75464C10.001 4.72625 10.3926 4.84508 10.7053 5.08823C10.871 5.22429 11.0064 5.39366 11.1025 5.58539C11.1991 5.77779 11.254 5.9884 11.2638 6.20348C11.2735 6.41855 11.2379 6.63327 11.1592 6.83364C11.0804 7.03401 10.9604 7.21551 10.8069 7.36635L10.1941 7.98386C10.136 8.04162 10.0899 8.11028 10.0585 8.18589C10.0269 8.26173 10.0106 8.34308 10.0106 8.42524C10.0106 8.5074 10.0269 8.58874 10.0585 8.66459C10.0899 8.74019 10.136 8.80884 10.1941 8.8666C10.2518 8.92468 10.3204 8.97081 10.396 9.00232C10.4718 9.03393 10.5532 9.05021 10.6353 9.05021C10.7175 9.05021 10.7988 9.03393 10.8746 9.00232C10.9503 8.97077 11.0194 8.92424 11.0771 8.86604L11.6888 8.25396C11.9681 7.97183 12.1843 7.63355 12.3231 7.26152C12.4619 6.8895 12.5201 6.49222 12.4939 6.09599C12.4677 5.69977 12.3576 5.31363 12.171 4.96317ZM8.41524 6.69521L6.69294 8.41858C6.63477 8.47639 6.5883 8.54542 6.55678 8.62114C6.5252 8.69698 6.50894 8.77833 6.50894 8.86049C6.50894 8.94264 6.5252 9.02399 6.55678 9.09984C6.58825 9.17544 6.63434 9.24409 6.69239 9.30185C6.75011 9.35993 6.81873 9.40606 6.89432 9.43757C6.97015 9.46918 7.05148 9.48546 7.13364 9.48546C7.21579 9.48546 7.29713 9.46918 7.37296 9.43757C7.44865 9.40601 7.51767 9.35949 7.57544 9.30129L9.29774 7.57792C9.41474 7.46085 9.48045 7.30209 9.48045 7.13657C9.48045 6.97105 9.41474 6.81229 9.29774 6.69521C9.18073 6.57813 9.02201 6.51234 8.85649 6.51234C8.69096 6.51234 8.53224 6.57813 8.41524 6.69521Z" fill="#DA191C"/>
</svg>
