<svg width="94" height="47" viewBox="0 0 94 47" fill="none" xmlns="http://www.w3.org/2000/svg">
<path d="M22.7702 22.7419L27.6229 9.4758M22.7702 22.7419L36.395 23.5M22.7702 22.7419L26.3164 36.1976M22.7702 22.7419L11.1985 30.3226M22.7702 22.7419L11.7584 13.8347M27.6229 9.4758L36.395 23.5M27.6229 9.4758L30.4225 2.08467M27.6229 9.4758L16.9843 2.46371M27.6229 9.4758L40.3144 10.9919M27.6229 9.4758L11.7584 13.8347M36.395 23.5L26.3164 36.1976M36.395 23.5L40.3144 10.9919M36.395 23.5L44.7938 23.879M36.395 23.5L39.5679 36.0081M26.3164 36.1976L39.5679 36.0081M26.3164 36.1976L28.7427 44.3468M26.3164 36.1976L15.3046 42.8306M26.3164 36.1976L11.1985 30.3226M40.3144 10.9919L44.7938 23.879M40.3144 10.9919L45.1671 17.0564M40.3144 10.9919L37.3282 5.30645M40.3144 10.9919L30.4225 2.08467M44.7938 23.879L39.5679 36.0081M44.7938 23.879L44.0472 31.4597M44.7938 23.879L45.1671 17.0564M39.5679 36.0081L44.0472 31.4597M39.5679 36.0081L28.7427 44.3468M39.5679 36.0081L35.835 42.4516M44.0472 31.4597L35.835 42.4516M35.835 42.4516L28.7427 44.3468M28.7427 44.3468L22.3969 46.621M28.7427 44.3468L15.3046 42.8306M22.3969 46.621L8.95876 41.3145M22.3969 46.621L15.3046 42.8306M8.95876 41.3145L15.3046 42.8306M8.95876 41.3145L4.85266 35.25M15.3046 42.8306L11.1985 30.3226M15.3046 42.8306L4.85266 35.25M11.1985 30.3226L11.7584 13.8347M11.1985 30.3226L2.23969 22.3629M11.1985 30.3226L4.85266 35.25M11.7584 13.8347L16.9843 2.46371M11.7584 13.8347L5.59923 9.4758M11.7584 13.8347L2.23969 22.3629M16.9843 2.46371L23.5168 0.379028L30.4225 2.08467M16.9843 2.46371L5.59923 9.4758M16.9843 2.46371L10.8252 4.16935L5.59923 9.4758M30.4225 2.08467L37.3282 5.30645M37.3282 5.30645L45.1671 17.0564M5.59923 9.4758L1.49313 15.1613M5.59923 9.4758L2.23969 22.3629M2.23969 22.3629L4.85266 35.25M2.23969 22.3629L0.373283 29.1855M2.23969 22.3629L1.49313 15.1613M4.85266 35.25L0.373283 29.1855M0.373283 29.1855L1.49313 15.1613" stroke="#CCCCCC" stroke-width="0.447541"/>
<ellipse cx="22.7702" cy="22.7419" rx="1.11985" ry="1.1371" fill="#190F7A"/>
<ellipse cx="36.5816" cy="23.5" rx="1.11985" ry="1.1371" fill="#190F7A"/>
<ellipse cx="28.7427" cy="44.3468" rx="1.11985" ry="1.1371" fill="#190F7A"/>
<ellipse cx="4.85266" cy="35.25" rx="0.746563" ry="0.758066" fill="#190F7A"/>
<ellipse cx="44.7938" cy="23.879" rx="0.746561" ry="0.758063" fill="#190F7A"/>
<ellipse cx="16.9843" cy="2.46372" rx="0.559923" ry="0.568548" fill="#190F7A"/>
<ellipse cx="30.4225" cy="2.08469" rx="0.559924" ry="0.568548" fill="#190F7A"/>
<ellipse cx="11.7584" cy="13.8347" rx="0.559923" ry="0.568548" fill="#190F7A"/>
<ellipse cx="26.3164" cy="36.1976" rx="0.559921" ry="0.56855" fill="#190F7A"/>
<ellipse cx="15.3046" cy="42.8306" rx="0.373282" ry="0.379032" fill="#190F7A"/>
<ellipse cx="8.95876" cy="41.3145" rx="0.373282" ry="0.379032" fill="#190F7A"/>
<ellipse cx="11.1985" cy="30.3226" rx="0.373281" ry="0.379033" fill="#190F7A"/>
<ellipse cx="0.373282" cy="29.1855" rx="0.373282" ry="0.379033" fill="#190F7A"/>
<ellipse cx="2.23969" cy="22.3629" rx="0.373282" ry="0.379031" fill="#190F7A"/>
<ellipse cx="1.49313" cy="15.1613" rx="0.373282" ry="0.379032" fill="#190F7A"/>
<ellipse cx="5.59923" cy="9.4758" rx="0.373282" ry="0.379032" fill="#190F7A"/>
<ellipse cx="10.8252" cy="4.16935" rx="0.373282" ry="0.379032" fill="#190F7A"/>
<ellipse cx="23.5168" cy="0.379032" rx="0.373282" ry="0.379032" fill="#190F7A"/>
<ellipse cx="37.3282" cy="5.30646" rx="0.373285" ry="0.379032" fill="#190F7A"/>
<ellipse cx="40.3144" cy="10.9919" rx="0.373283" ry="0.379033" fill="#190F7A"/>
<ellipse cx="45.1671" cy="17.0565" rx="0.373283" ry="0.379033" fill="#190F7A"/>
<ellipse cx="44.0472" cy="31.4597" rx="0.373285" ry="0.379031" fill="#190F7A"/>
<ellipse cx="35.835" cy="42.4516" rx="0.373283" ry="0.379034" fill="#190F7A"/>
<ellipse cx="22.3969" cy="46.621" rx="0.373281" ry="0.379034" fill="#190F7A"/>
<ellipse cx="39.5679" cy="36.0081" rx="0.37328" ry="0.379034" fill="#190F7A"/>
<ellipse cx="27.6228" cy="9.4758" rx="0.373281" ry="0.379032" fill="#190F7A"/>
<path d="M59.404 14.2628H55.376V11.0328H67.574V14.2628H63.546V34.5928H59.404V14.2628ZM65.6137 34.5928L70.5157 11.0328H75.0757L79.9397 34.5928H75.6457L74.6577 29.5008L75.3417 30.1468H70.0977L70.6677 29.5008L69.7937 34.5928H65.6137ZM70.8197 27.3348L70.4397 26.8788H75.1137L74.5817 27.3348L72.9477 16.5808L72.9097 15.8588H72.6057L72.5677 16.5808L70.8197 27.3348ZM87.301 34.8588C85.1984 34.8588 83.653 34.4788 82.665 33.7188C81.7024 32.9335 81.221 31.8568 81.221 30.4888V15.5168C81.221 13.8195 81.6897 12.6035 82.627 11.8688C83.5644 11.1342 85.0844 10.7668 87.187 10.7668C89.2137 10.7668 90.7337 11.1342 91.747 11.8688C92.7857 12.6035 93.2924 13.8322 93.267 15.5548V20.5708L89.201 21.0648V16.5428C89.201 15.7575 89.0744 15.1622 88.821 14.7568C88.593 14.3262 88.061 14.1108 87.225 14.1108C86.4144 14.1108 85.895 14.3388 85.667 14.7948C85.4644 15.2508 85.363 15.8208 85.363 16.5048V29.5388C85.363 30.0708 85.4897 30.5268 85.743 30.9068C85.9964 31.2868 86.4904 31.4768 87.225 31.4768C88.0104 31.4768 88.5297 31.2868 88.783 30.9068C89.0617 30.5268 89.201 30.0582 89.201 29.5008V25.2828L93.267 24.8268V30.4888C93.267 31.8568 92.7477 32.9335 91.709 33.7188C90.6957 34.4788 89.2264 34.8588 87.301 34.8588Z" fill="#20127F"/>
</svg>
