<svg width="470" height="478" viewBox="0 0 470 478" fill="none" xmlns="http://www.w3.org/2000/svg">
<path d="M234.969 231.29L285.045 96.371M234.969 231.29L375.565 239M234.969 231.29L271.563 368.137M234.969 231.29L115.559 308.387M234.969 231.29L121.337 140.702M285.045 96.371L375.565 239M285.045 96.371L313.934 21.2017M285.045 96.371L175.264 25.0565M285.045 96.371L416.011 111.79M285.045 96.371L121.337 140.702M375.565 239L271.563 368.137M375.565 239L416.011 111.79M375.565 239L462.234 242.855M375.565 239L408.307 366.21M271.563 368.137L408.307 366.21M271.563 368.137L296.6 451.016M271.563 368.137L157.93 435.597M271.563 368.137L115.559 308.387M416.011 111.79L462.234 242.855M416.011 111.79L466.086 173.468M416.011 111.79L385.195 53.9678M416.011 111.79L313.934 21.2017M462.234 242.855L408.307 366.21M462.234 242.855L454.53 319.952M462.234 242.855L466.086 173.468M408.307 366.21L454.53 319.952M408.307 366.21L296.6 451.016M408.307 366.21L369.787 431.742M454.53 319.952L369.787 431.742M369.787 431.742L296.6 451.016M296.6 451.016L231.117 474.145M296.6 451.016L157.93 435.597M231.117 474.145L92.4471 420.177M231.117 474.145L157.93 435.597M92.4471 420.177L157.93 435.597M92.4471 420.177L50.0757 358.5M157.93 435.597L115.559 308.387M157.93 435.597L50.0757 358.5M115.559 308.387L121.337 140.702M115.559 308.387L23.112 227.436M115.559 308.387L50.0757 358.5M121.337 140.702L175.264 25.0565M121.337 140.702L57.7796 96.371M121.337 140.702L23.112 227.436M175.264 25.0565L242.673 3.85489L313.934 21.2017M175.264 25.0565L57.7796 96.371M175.264 25.0565L111.707 42.4033L57.7796 96.371M313.934 21.2017L385.195 53.9678M385.195 53.9678L466.086 173.468M57.7796 96.371L15.4081 154.194M57.7796 96.371L23.112 227.436M23.112 227.436L50.0757 358.5M23.112 227.436L3.85229 296.823M23.112 227.436L15.4081 154.194M50.0757 358.5L3.85229 296.823M3.85229 296.823L15.4081 154.194" stroke="#CCCCCC" stroke-width="2.69636"/>
<ellipse cx="234.969" cy="231.29" rx="11.5559" ry="11.5645" fill="#190F7A"/>
<ellipse cx="377.492" cy="239" rx="11.5558" ry="11.5645" fill="#190F7A"/>
<ellipse cx="296.6" cy="451.016" rx="11.5559" ry="11.5645" fill="#190F7A"/>
<ellipse cx="50.0757" cy="358.5" rx="7.7039" ry="7.70969" fill="#190F7A"/>
<ellipse cx="462.234" cy="242.855" rx="7.70391" ry="7.70968" fill="#190F7A"/>
<ellipse cx="175.264" cy="25.0565" rx="5.77793" ry="5.78226" fill="#190F7A"/>
<ellipse cx="313.933" cy="21.2016" rx="5.77793" ry="5.78226" fill="#190F7A"/>
<ellipse cx="121.337" cy="140.702" rx="5.77793" ry="5.78226" fill="#190F7A"/>
<ellipse cx="271.562" cy="368.137" rx="5.77793" ry="5.78226" fill="#190F7A"/>
<ellipse cx="157.93" cy="435.597" rx="3.85195" ry="3.85482" fill="#190F7A"/>
<ellipse cx="92.4469" cy="420.177" rx="3.85195" ry="3.85484" fill="#190F7A"/>
<ellipse cx="115.559" cy="308.387" rx="3.85195" ry="3.85485" fill="#190F7A"/>
<ellipse cx="3.85195" cy="296.823" rx="3.85195" ry="3.85484" fill="#190F7A"/>
<ellipse cx="23.112" cy="227.435" rx="3.85195" ry="3.85484" fill="#190F7A"/>
<ellipse cx="15.4081" cy="154.194" rx="3.85195" ry="3.85484" fill="#190F7A"/>
<ellipse cx="57.7792" cy="96.371" rx="3.85195" ry="3.85484" fill="#190F7A"/>
<ellipse cx="111.706" cy="42.4031" rx="3.85195" ry="3.85484" fill="#190F7A"/>
<ellipse cx="242.673" cy="3.85484" rx="3.85195" ry="3.85484" fill="#190F7A"/>
<ellipse cx="385.195" cy="53.9678" rx="3.85194" ry="3.85484" fill="#190F7A"/>
<ellipse cx="416.011" cy="111.79" rx="3.85194" ry="3.85484" fill="#190F7A"/>
<ellipse cx="466.085" cy="173.468" rx="3.85194" ry="3.85484" fill="#190F7A"/>
<ellipse cx="454.53" cy="319.952" rx="3.85194" ry="3.85483" fill="#190F7A"/>
<ellipse cx="369.788" cy="431.742" rx="3.85195" ry="3.85484" fill="#190F7A"/>
<ellipse cx="231.116" cy="474.145" rx="3.85195" ry="3.85484" fill="#190F7A"/>
<ellipse cx="408.306" cy="366.21" rx="3.85194" ry="3.85484" fill="#190F7A"/>
<ellipse cx="285.044" cy="96.371" rx="3.85195" ry="3.85484" fill="#190F7A"/>
</svg>
