<svg width="11" height="13" viewBox="0 0 11 13" fill="none" xmlns="http://www.w3.org/2000/svg">
<path d="M1.83402 12.0556C1.83402 12.1734 1.8823 12.2865 1.96825 12.3698C2.0542 12.4532 2.17077 12.5 2.29232 12.5H6.41701C7.91656 12.5 9.07514 11.9507 9.85334 11.101C10.6242 10.2592 11 9.15082 11 8.05576C11 6.9607 10.6242 5.85142 9.85334 5.01057C9.07423 4.16083 7.91656 3.61153 6.41701 3.61153H1.56545L3.99169 1.25964C4.0343 1.21832 4.0681 1.16926 4.09116 1.11527C4.11422 1.06129 4.12609 1.00342 4.12609 0.944985C4.12609 0.886549 4.11422 0.828685 4.09116 0.774697C4.0681 0.720709 4.0343 0.671654 3.99169 0.630333C3.94908 0.589012 3.89849 0.556235 3.84282 0.533873C3.78714 0.51151 3.72747 0.5 3.66721 0.5C3.60695 0.5 3.54728 0.51151 3.49161 0.533873C3.43593 0.556235 3.38535 0.589012 3.34274 0.630333L0.134643 3.7413C0.0919628 3.78258 0.0581009 3.83162 0.0349967 3.88562C0.0118925 3.93961 0 3.99749 0 4.05595C0 4.11441 0.0118925 4.17229 0.0349967 4.22628C0.0581009 4.28028 0.0919628 4.32932 0.134643 4.3706L3.34274 7.48157C3.42879 7.56502 3.54551 7.6119 3.66721 7.6119C3.78891 7.6119 3.90563 7.56502 3.99169 7.48157C4.07774 7.39812 4.12609 7.28493 4.12609 7.16692C4.12609 7.0489 4.07774 6.93572 3.99169 6.85226L1.56545 4.50037H6.41701C7.66725 4.50037 8.57101 4.95102 9.16772 5.60077C9.77176 6.26029 10.0834 7.15092 10.0834 8.05576C10.0834 8.96061 9.77176 9.85124 9.16772 10.5108C8.57193 11.1605 7.66725 11.6112 6.41701 11.6112H2.29232C2.17077 11.6112 2.0542 11.658 1.96825 11.7413C1.8823 11.8247 1.83402 11.9377 1.83402 12.0556Z" fill="#F57C1F"/>
</svg>
