<svg width="12" height="19" viewBox="0 0 12 19" fill="none" xmlns="http://www.w3.org/2000/svg">
<path d="M11.0234 13.4414C11.0234 14.9492 10.4766 16.125 9.38281 16.9688C8.28906 17.8125 6.80469 18.2344 4.92969 18.2344C2.89844 18.2344 1.33594 17.9727 0.242188 17.4492V15.5273C0.945312 15.8242 1.71094 16.0586 2.53906 16.2305C3.36719 16.4023 4.1875 16.4883 5 16.4883C6.32812 16.4883 7.32812 16.2383 8 15.7383C8.67188 15.2305 9.00781 14.5273 9.00781 13.6289C9.00781 13.0352 8.88672 12.5508 8.64453 12.1758C8.41016 11.793 8.01172 11.4414 7.44922 11.1211C6.89453 10.8008 6.04688 10.4375 4.90625 10.0312C3.3125 9.46094 2.17188 8.78516 1.48438 8.00391C0.804688 7.22266 0.464844 6.20312 0.464844 4.94531C0.464844 3.625 0.960938 2.57422 1.95312 1.79297C2.94531 1.01172 4.25781 0.621094 5.89062 0.621094C7.59375 0.621094 9.16016 0.933594 10.5898 1.55859L9.96875 3.29297C8.55469 2.69922 7.17969 2.40234 5.84375 2.40234C4.78906 2.40234 3.96484 2.62891 3.37109 3.08203C2.77734 3.53516 2.48047 4.16406 2.48047 4.96875C2.48047 5.5625 2.58984 6.05078 2.80859 6.43359C3.02734 6.80859 3.39453 7.15625 3.91016 7.47656C4.43359 7.78906 5.23047 8.13672 6.30078 8.51953C8.09766 9.16016 9.33203 9.84766 10.0039 10.582C10.6836 11.3164 11.0234 12.2695 11.0234 13.4414Z" fill="#999999"/>
<path d="M-1 12.1758H12.1719V13.3711H-1V12.1758Z" fill="#999999"/>
</svg>
