<svg width="401" height="464" viewBox="0 0 401 464" fill="none" xmlns="http://www.w3.org/2000/svg">
<path d="M46.2207 140.739H5.34812V107.964H129.123V140.739H88.25V347.029H46.2207V140.739ZM109.231 347.029L158.973 107.964H205.243L254.599 347.029H211.027L201.002 295.36L207.943 301.915H154.731L160.515 295.36L151.646 347.029H109.231ZM162.057 273.382L158.201 268.755H205.629L200.231 273.382L183.65 164.26L183.265 156.934H180.18L179.794 164.26L162.057 273.382ZM329.295 349.729C307.959 349.729 292.278 345.873 282.253 338.161C272.485 330.192 267.601 319.267 267.601 305.386V153.463C267.601 136.24 272.356 123.901 281.867 116.447C291.379 108.992 306.802 105.264 328.138 105.264C348.703 105.264 364.127 108.992 374.409 116.447C384.948 123.901 390.09 136.369 389.833 153.849V204.747L348.574 209.759V163.874C348.574 155.905 347.289 149.864 344.719 145.751C342.405 141.381 337.007 139.196 328.524 139.196C320.298 139.196 315.028 141.51 312.715 146.137C310.658 150.764 309.63 156.548 309.63 163.489V295.746C309.63 301.144 310.915 305.771 313.486 309.627C316.056 313.483 321.069 315.411 328.524 315.411C336.493 315.411 341.762 313.483 344.333 309.627C347.161 305.771 348.574 301.016 348.574 295.36V252.56L389.833 247.933V305.386C389.833 319.267 384.563 330.192 374.023 338.161C363.741 345.873 348.832 349.729 329.295 349.729Z" fill="#20127F"/>
</svg>
