<svg width="14" height="19" viewBox="0 0 14 19" fill="none" xmlns="http://www.w3.org/2000/svg">
<path d="M13.3047 0.867188V11.9531C13.3047 13.1641 13.0586 14.2422 12.5664 15.1875C12.082 16.1328 11.3477 16.8789 10.3633 17.4258C9.37891 17.9648 8.14453 18.2344 6.66016 18.2344C4.54297 18.2344 2.92969 17.6602 1.82031 16.5117C0.71875 15.3633 0.167969 13.8281 0.167969 11.9062V0.867188H2.17188V11.9648C2.17188 13.418 2.55469 14.5391 3.32031 15.3281C4.09375 16.1172 5.24609 16.5117 6.77734 16.5117C7.82422 16.5117 8.67969 16.3242 9.34375 15.9492C10.0156 15.5664 10.5117 15.0352 10.832 14.3555C11.1602 13.668 11.3242 12.875 11.3242 11.9766V0.867188H13.3047Z" fill="#999999"/>
<path d="M-2 19.4648H15.4961V20.0508H-2V19.4648Z" fill="#999999"/>
</svg>
