<svg width="14" height="10" viewBox="0 0 14 10" fill="none" xmlns="http://www.w3.org/2000/svg">
<path d="M5.03355 7.65456C5.13217 7.76064 5.1867 7.90267 5.1854 8.05008C5.1841 8.19748 5.12707 8.33846 5.02659 8.44264C4.92612 8.54683 4.79024 8.60589 4.64822 8.6071C4.50619 8.60831 4.3694 8.55157 4.26728 8.44912L0.658408 4.69896C0.556974 4.59355 0.5 4.45066 0.5 4.30168C0.5 4.1527 0.556974 4.00982 0.658408 3.90441L4.26801 0.157999C4.37012 0.0555409 4.50692 -0.00119194 4.64894 1.89939e-05C4.79096 0.00122993 4.92684 0.060288 5.02732 0.164473C5.12779 0.268658 5.18482 0.409634 5.18612 0.557038C5.18742 0.704441 5.13289 0.846478 5.03427 0.952555L2.34765 3.741H8.01121C9.16314 3.741 10.0406 3.9224 10.8199 4.31368L10.9975 4.40812C11.7899 4.84395 12.438 5.51662 12.858 6.33904C13.2978 7.19357 13.5 8.15153 13.5 9.43781C13.5 9.58691 13.4429 9.72991 13.3414 9.83534C13.2398 9.94077 13.102 10 12.9583 10C12.8147 10 12.6769 9.94077 12.5753 9.83534C12.4738 9.72991 12.4167 9.58691 12.4167 9.43781C12.4167 8.32544 12.252 7.54887 11.9018 6.86825C11.5829 6.24202 11.0896 5.73004 10.4862 5.39907C9.88173 5.06326 9.19636 4.89235 8.25171 4.86762L8.01049 4.86462H2.35054L5.03355 7.65381V7.65456Z" fill="#DA191C"/>
</svg>
